<svg xmlns="http://www.w3.org/2000/svg" style="display: none;">
    <symbol id="icon-delivery" viewBox="0 0 24 24">
        <path d="M22.9999 17.91C23.0199 18.66 22.8199 19.37 22.4599 19.98C22.2599 20.34 21.9899 20.6701 21.6899 20.9401C20.9999 21.5801 20.0899 21.9701 19.0799 22.0001C17.6199 22.0301 16.3299 21.2801 15.6199 20.1301C15.2399 19.5401 15.0099 18.8301 14.9999 18.0801C14.9699 16.8201 15.5299 15.6801 16.4299 14.9301C17.1099 14.3701 17.9699 14.0201 18.9099 14.0001C21.1199 13.9501 22.9499 15.7 22.9999 17.91Z" stroke="#26AC5B" stroke-width="1.5" stroke-miterlimit="10" stroke-linecap="round" stroke-linejoin="round"/>
        <path d="M17.4399 18.0303L18.45 18.9902L20.5399 16.9702" stroke="#26AC5B" stroke-width="1.5" stroke-linecap="round" stroke-linejoin="round"/>
        <path d="M3.17004 7.43994L12 12.5499L20.77 7.46991" stroke="#26AC5B" stroke-width="1.5" stroke-linecap="round" stroke-linejoin="round"/>
        <path d="M12 21.61V12.54" stroke="#26AC5B" stroke-width="1.5" stroke-linecap="round" stroke-linejoin="round"/>
        <path d="M21.61 9.17V14.83C21.61 14.88 21.61 14.92 21.6 14.97C20.9 14.36 20 14 19 14C18.06 14 17.19 14.33 16.5 14.88C15.58 15.61 15 16.74 15 18C15 18.75 15.21 19.46 15.58 20.06C15.67 20.22 15.78 20.37 15.9 20.51L14.07 21.52C12.93 22.16 11.07 22.16 9.92999 21.52L4.59 18.56C3.38 17.89 2.39001 16.21 2.39001 14.83V9.17C2.39001 7.79 3.38 6.11002 4.59 5.44002L9.92999 2.48C11.07 1.84 12.93 1.84 14.07 2.48L19.41 5.44002C20.62 6.11002 21.61 7.79 21.61 9.17Z" stroke="#26AC5B" stroke-width="1.5" stroke-linecap="round" stroke-linejoin="round"/>  
    </symbol>

    <symbol id="icon-success" viewBox="0 0 24 24">
        <path d="M12 22C17.5 22 22 17.5 22 12C22 6.5 17.5 2 12 2C6.5 2 2 6.5 2 12C2 17.5 6.5 22 12 22Z" stroke="#26AC5B" stroke-width="1.5" stroke-linecap="round" stroke-linejoin="round"/>
        <path d="M7.75 11.9999L10.58 14.8299L16.25 9.16992" stroke="#26AC5B" stroke-width="1.5" stroke-linecap="round" stroke-linejoin="round"/>
    </symbol>

    <symbol id="icon-failed" viewBox="0 0 24 24">
        <path d="M14.9 2H9.10001C8.42001 2 7.46 2.4 6.98 2.88L2.88 6.98001C2.4 7.46001 2 8.42001 2 9.10001V14.9C2 15.58 2.4 16.54 2.88 17.02L6.98 21.12C7.46 21.6 8.42001 22 9.10001 22H14.9C15.58 22 16.54 21.6 17.02 21.12L21.12 17.02C21.6 16.54 22 15.58 22 14.9V9.10001C22 8.42001 21.6 7.46001 21.12 6.98001L17.02 2.88C16.54 2.4 15.58 2 14.9 2Z" stroke="#DF0202" stroke-width="1.5" stroke-linecap="round" stroke-linejoin="round"/>
        <path d="M8.5 15.5L15.5 8.5" stroke="#DF0202" stroke-width="1.5" stroke-linecap="round" stroke-linejoin="round"/>
        <path d="M15.5 15.5L8.5 8.5" stroke="#DF0202" stroke-width="1.5" stroke-linecap="round" stroke-linejoin="round"/>
    </symbol>

    <symbol id="icon-setting" viewBox="0 0 24 24">
        <path d="M17 10H19C21 10 22 9 22 7V5C22 3 21 2 19 2H17C15 2 14 3 14 5V7C14 9 15 10 17 10Z" stroke="#26AC5B" stroke-width="1.5" stroke-miterlimit="10" stroke-linecap="round" stroke-linejoin="round"/>
        <path d="M5 22H7C9 22 10 21 10 19V17C10 15 9 14 7 14H5C3 14 2 15 2 17V19C2 21 3 22 5 22Z" stroke="#26AC5B" stroke-width="1.5" stroke-miterlimit="10" stroke-linecap="round" stroke-linejoin="round"/>
        <path d="M6 10C8.20914 10 10 8.20914 10 6C10 3.79086 8.20914 2 6 2C3.79086 2 2 3.79086 2 6C2 8.20914 3.79086 10 6 10Z" stroke="#26AC5B" stroke-width="1.5" stroke-miterlimit="10" stroke-linecap="round" stroke-linejoin="round"/>
        <path d="M18 22C20.2091 22 22 20.2091 22 18C22 15.7909 20.2091 14 18 14C15.7909 14 14 15.7909 14 18C14 20.2091 15.7909 22 18 22Z" stroke="#26AC5B" stroke-width="1.5" stroke-miterlimit="10" stroke-linecap="round" stroke-linejoin="round"/>
    </symbol>

    <symbol id="icon-settingp" viewBox="0 0 24 24">
    <path d="M17 10H19C21 10 22 9 22 7V5C22 3 21 2 19 2H17C15 2 14 3 14 5V7C14 9 15 10 17 10Z" stroke="#FF0000" stroke-width="1.5" stroke-miterlimit="10" stroke-linecap="round" stroke-linejoin="round"/>
    <path d="M5 22H7C9 22 10 21 10 19V17C10 15 9 14 7 14H5C3 14 2 15 2 17V19C2 21 3 22 5 22Z" stroke="#FF0000" stroke-width="1.5" stroke-miterlimit="10" stroke-linecap="round" stroke-linejoin="round"/>
    <path d="M6 10C8.20914 10 10 8.20914 10 6C10 3.79086 8.20914 2 6 2C3.79086 2 2 3.79086 2 6C2 8.20914 3.79086 10 6 10Z" stroke="#FF0000" stroke-width="1.5" stroke-miterlimit="10" stroke-linecap="round" stroke-linejoin="round"/>
    <path d="M18 22C20.2091 22 22 20.2091 22 18C22 15.7909 20.2091 14 18 14C15.7909 14 14 15.7909 14 18C14 20.2091 15.7909 22 18 22Z" stroke="#FF0000" stroke-width="1.5" stroke-miterlimit="10" stroke-linecap="round" stroke-linejoin="round"/>
</symbol>

    <symbol id="icon-play" viewBox="0 0 24 24">
        <path d="M4 11.9999V8.43989C4 4.01989 7.13 2.2099 10.96 4.4199L14.05 6.1999L17.14 7.9799C20.97 10.1899 20.97 13.8099 17.14 16.0199L14.05 17.7999L10.96 19.5799C7.13 21.7899 4 19.9799 4 15.5599V11.9999Z" 
        stroke="#0077CC" stroke-width="1.5" stroke-miterlimit="10" stroke-linecap="round" stroke-linejoin="round"/>
    </symbol>

    <symbol id="icon-delete" viewBox="0 0 24 24">
        <path d="M9 22H15C20 22 22 20 22 15V9C22 4 20 2 15 2H9C4 2 2 4 2 9V15C2 20 4 22 9 22Z" stroke="#DF0202" stroke-width="1.5" stroke-linecap="round" stroke-linejoin="round"/>
        <path d="M17.9 9.04973C15.72 8.82973 13.52 8.71973 11.33 8.71973C10.03 8.71973 8.72997 8.78972 7.43997 8.91972L6.09998 9.04973" stroke="#DF0202" stroke-width="1.5" stroke-linecap="round" stroke-linejoin="round"/>
        <path d="M9.70996 8.38994L9.84996 7.52994C9.94996 6.90994 10.03 6.43994 11.14 6.43994H12.86C13.97 6.43994 14.0499 6.92994 14.1499 7.52994L14.2899 8.37994" stroke="#DF0202" stroke-width="1.5" stroke-linecap="round" stroke-linejoin="round"/>
        <path d="M16.49 9.12988L16.06 15.7299C15.99 16.7599 15.93 17.5599 14.1 17.5599H9.89C8.06 17.5599 7.99999 16.7599 7.92999 15.7299L7.5 9.12988" stroke="#DF0202" stroke-width="1.5" stroke-linecap="round" stroke-linejoin="round"/>
    </symbol>

    <symbol id="icon-layer" viewBox="0 0 24 24">
        <path d="M13.01 2.91982L18.91 5.53982C20.61 6.28982 20.61 7.52982 18.91 8.27982L13.01 10.8998C12.34 11.1998 11.24 11.1998 10.57 10.8998L4.67002 8.27982C2.97002 7.52982 2.97002 6.28982 4.67002 5.53982L10.57 2.91982C11.24 2.61982 12.34 2.61982 13.01 2.91982Z" stroke="#333333" stroke-width="1.5" stroke-linecap="round" stroke-linejoin="round"/>
        <path d="M3 11C3 11.84 3.63 12.81 4.4 13.15L11.19 16.17C11.71 16.4 12.3 16.4 12.81 16.17L19.6 13.15C20.37 12.81 21 11.84 21 11" stroke="#333333" stroke-width="1.5" stroke-linecap="round" stroke-linejoin="round"/>
        <path d="M3 16C3 16.93 3.55 17.77 4.4 18.15L11.19 21.17C11.71 21.4 12.3 21.4 12.81 21.17L19.6 18.15C20.45 17.77 21 16.93 21 16" stroke="#333333" stroke-width="1.5" stroke-linecap="round" stroke-linejoin="round"/>
    </symbol>
</svg>

